<?xml version="1.0" encoding="UTF-8"?> <svg xmlns="http://www.w3.org/2000/svg" viewBox="0 0 36 36"><path fill="#ffcc4d" d="M2.653 35C.81 35-.001 33.662.847 32.027l15.61-30.055c.85-1.635 2.238-1.635 3.087 0l15.61 30.056c.85 1.634.037 2.972-1.805 2.972H2.653z"></path><path fill="#231f20" d="M15.583 28.953a2.42 2.42 0 0 1 2.419-2.418 2.42 2.42 0 0 1 2.418 2.418c0 1.334-1.086 2.42-2.418 2.42a2.42 2.42 0 0 1-2.419-2.419zm.186-18.293c0-1.302.96-2.108 2.232-2.108 1.24 0 2.233.837 2.233 2.108v11.938c0 1.27-.992 2.108-2.233 2.108-1.27 0-2.232-.807-2.232-2.108V10.66z"></path></svg> 